<mxfile host="app.diagrams.net" modified="2023-02-13T13:09:20.400Z" agent="5.0 (Windows NT 10.0; Win64; x64) AppleWebKit/537.36 (KHTML, like Gecko) Chrome/109.0.0.0 Safari/537.36" etag="TW-3Yy92_a7iN4g6umcd" version="20.8.11" type="github">
  <diagram name="Página-1" id="c2PRdKZFYIzqiw0_GgeE">
    <mxGraphModel dx="1434" dy="796" grid="1" gridSize="10" guides="1" tooltips="1" connect="1" arrows="1" fold="1" page="1" pageScale="1" pageWidth="827" pageHeight="1169" math="0" shadow="0">
      <root>
        <mxCell id="0" />
        <mxCell id="1" parent="0" />
        <mxCell id="iGDg_b-g1V8MDgVYs35A-1" value="&lt;b&gt;&lt;font style=&quot;font-size: 18px;&quot;&gt;ÍNICIO&lt;/font&gt;&lt;/b&gt;" style="rounded=1;whiteSpace=wrap;html=1;align=center;" vertex="1" parent="1">
          <mxGeometry x="310" y="20" width="180" height="60" as="geometry" />
        </mxCell>
        <mxCell id="iGDg_b-g1V8MDgVYs35A-2" value="&lt;span style=&quot;font-size: 18px;&quot;&gt;&lt;b&gt;FIM&lt;/b&gt;&lt;/span&gt;" style="rounded=1;whiteSpace=wrap;html=1;align=center;" vertex="1" parent="1">
          <mxGeometry x="310" y="850" width="180" height="60" as="geometry" />
        </mxCell>
        <mxCell id="iGDg_b-g1V8MDgVYs35A-3" value="&lt;b&gt;Inteiro&lt;br&gt;&lt;/b&gt;&lt;span style=&quot;white-space: pre;&quot;&gt;	&lt;/span&gt;numeroTab &amp;lt; - 0&lt;br&gt;&lt;span style=&quot;white-space: pre;&quot;&gt;	&lt;/span&gt;termo &amp;lt; - 0&lt;br&gt;&lt;span style=&quot;white-space: pre;&quot;&gt;	&lt;/span&gt;contador &amp;lt; - 1" style="rounded=0;whiteSpace=wrap;html=1;fontSize=18;align=left;" vertex="1" parent="1">
          <mxGeometry x="285" y="110" width="230" height="102" as="geometry" />
        </mxCell>
        <mxCell id="iGDg_b-g1V8MDgVYs35A-4" value="Olá, Jovem! Vamos calcular!&lt;br&gt;Eu sou bom em tabuadas!" style="shape=document;whiteSpace=wrap;html=1;boundedLbl=1;fontSize=18;" vertex="1" parent="1">
          <mxGeometry x="250" y="250" width="300" height="70" as="geometry" />
        </mxCell>
        <mxCell id="iGDg_b-g1V8MDgVYs35A-5" value="Digite o número que deseja tabular:&lt;br&gt;()" style="shape=parallelogram;perimeter=parallelogramPerimeter;whiteSpace=wrap;html=1;fixedSize=1;fontSize=18;" vertex="1" parent="1">
          <mxGeometry x="240" y="350" width="320" height="60" as="geometry" />
        </mxCell>
        <mxCell id="iGDg_b-g1V8MDgVYs35A-6" value="" style="endArrow=classic;html=1;rounded=0;fontSize=18;exitX=0.5;exitY=1;exitDx=0;exitDy=0;" edge="1" parent="1" source="iGDg_b-g1V8MDgVYs35A-3">
          <mxGeometry width="50" height="50" relative="1" as="geometry">
            <mxPoint x="390" y="370" as="sourcePoint" />
            <mxPoint x="400" y="250" as="targetPoint" />
          </mxGeometry>
        </mxCell>
        <mxCell id="iGDg_b-g1V8MDgVYs35A-7" value="" style="endArrow=classic;html=1;rounded=0;fontSize=18;exitX=0.5;exitY=1;exitDx=0;exitDy=0;" edge="1" parent="1" source="iGDg_b-g1V8MDgVYs35A-1">
          <mxGeometry width="50" height="50" relative="1" as="geometry">
            <mxPoint x="390" y="370" as="sourcePoint" />
            <mxPoint x="400" y="110" as="targetPoint" />
          </mxGeometry>
        </mxCell>
        <mxCell id="iGDg_b-g1V8MDgVYs35A-8" value="" style="endArrow=classic;html=1;rounded=0;fontSize=18;" edge="1" parent="1">
          <mxGeometry width="50" height="50" relative="1" as="geometry">
            <mxPoint x="399.5" y="310" as="sourcePoint" />
            <mxPoint x="399.5" y="350" as="targetPoint" />
          </mxGeometry>
        </mxCell>
        <mxCell id="iGDg_b-g1V8MDgVYs35A-10" value="(contador &amp;lt;=10) ?" style="rhombus;whiteSpace=wrap;html=1;fontSize=18;" vertex="1" parent="1">
          <mxGeometry x="245" y="450" width="310" height="90" as="geometry" />
        </mxCell>
        <mxCell id="iGDg_b-g1V8MDgVYs35A-12" value="" style="endArrow=classic;html=1;rounded=0;fontSize=18;exitX=0.5;exitY=1;exitDx=0;exitDy=0;entryX=0.5;entryY=0;entryDx=0;entryDy=0;" edge="1" parent="1" source="iGDg_b-g1V8MDgVYs35A-5" target="iGDg_b-g1V8MDgVYs35A-10">
          <mxGeometry width="50" height="50" relative="1" as="geometry">
            <mxPoint x="390" y="370" as="sourcePoint" />
            <mxPoint x="440" y="320" as="targetPoint" />
          </mxGeometry>
        </mxCell>
        <mxCell id="iGDg_b-g1V8MDgVYs35A-13" value="" style="endArrow=classic;html=1;rounded=0;fontSize=18;exitX=1;exitY=0.5;exitDx=0;exitDy=0;entryX=1;entryY=0.5;entryDx=0;entryDy=0;" edge="1" parent="1" source="iGDg_b-g1V8MDgVYs35A-10" target="iGDg_b-g1V8MDgVYs35A-2">
          <mxGeometry width="50" height="50" relative="1" as="geometry">
            <mxPoint x="390" y="700" as="sourcePoint" />
            <mxPoint x="440" y="650" as="targetPoint" />
            <Array as="points">
              <mxPoint x="740" y="495" />
              <mxPoint x="740" y="880" />
            </Array>
          </mxGeometry>
        </mxCell>
        <mxCell id="iGDg_b-g1V8MDgVYs35A-14" value="&lt;b&gt;Não&lt;/b&gt;" style="text;html=1;align=center;verticalAlign=middle;resizable=0;points=[];autosize=1;strokeColor=none;fillColor=none;fontSize=18;" vertex="1" parent="1">
          <mxGeometry x="570" y="460" width="60" height="40" as="geometry" />
        </mxCell>
        <mxCell id="iGDg_b-g1V8MDgVYs35A-15" value="" style="endArrow=classic;html=1;rounded=0;fontSize=18;exitX=0.5;exitY=1;exitDx=0;exitDy=0;" edge="1" parent="1" source="iGDg_b-g1V8MDgVYs35A-10" target="iGDg_b-g1V8MDgVYs35A-16">
          <mxGeometry width="50" height="50" relative="1" as="geometry">
            <mxPoint x="390" y="700" as="sourcePoint" />
            <mxPoint x="400" y="610" as="targetPoint" />
          </mxGeometry>
        </mxCell>
        <mxCell id="iGDg_b-g1V8MDgVYs35A-16" value="contador &amp;lt;- contador + 1&lt;br&gt;	termo &amp;lt;- termo + numeroTab" style="rounded=0;whiteSpace=wrap;html=1;fontSize=18;align=left;" vertex="1" parent="1">
          <mxGeometry x="270" y="580" width="260" height="100" as="geometry" />
        </mxCell>
        <mxCell id="iGDg_b-g1V8MDgVYs35A-17" value="escreva(termo)" style="shape=document;whiteSpace=wrap;html=1;boundedLbl=1;fontSize=18;" vertex="1" parent="1">
          <mxGeometry x="285" y="730" width="230" height="50" as="geometry" />
        </mxCell>
        <mxCell id="iGDg_b-g1V8MDgVYs35A-18" value="" style="endArrow=classic;html=1;rounded=0;fontSize=18;exitX=0.5;exitY=1;exitDx=0;exitDy=0;entryX=0.5;entryY=0;entryDx=0;entryDy=0;" edge="1" parent="1" source="iGDg_b-g1V8MDgVYs35A-16" target="iGDg_b-g1V8MDgVYs35A-17">
          <mxGeometry width="50" height="50" relative="1" as="geometry">
            <mxPoint x="390" y="720" as="sourcePoint" />
            <mxPoint x="440" y="670" as="targetPoint" />
          </mxGeometry>
        </mxCell>
        <mxCell id="iGDg_b-g1V8MDgVYs35A-19" value="" style="endArrow=classic;html=1;rounded=0;fontSize=18;exitX=0.5;exitY=0.92;exitDx=0;exitDy=0;exitPerimeter=0;" edge="1" parent="1" source="iGDg_b-g1V8MDgVYs35A-17" target="iGDg_b-g1V8MDgVYs35A-2">
          <mxGeometry width="50" height="50" relative="1" as="geometry">
            <mxPoint x="390" y="720" as="sourcePoint" />
            <mxPoint x="440" y="670" as="targetPoint" />
          </mxGeometry>
        </mxCell>
      </root>
    </mxGraphModel>
  </diagram>
</mxfile>
